<svg enable-background="new 0 0 128 128" height="128" viewBox="0 0 128 128" width="128" xmlns="http://www.w3.org/2000/svg"><path d="m67.124 106.301-18.228-31.572h-11.928l-12.332-21.358-18.104 31.357 18.262 31.63h36.523z" fill="#00adef" opacity=".9"/><path d="m103.682 43.098h-11.93l-18.104 31.357 5.931 10.273-12.455 21.573.034.058h36.524l18.262-31.63z" fill="#fff100" opacity=".9"/><path d="m61.317 53.097.034.059 5.807-10.058h24.594l-18.262-31.63h-36.522l-18.263 31.63 5.931 10.273.158-.274z" fill="#ec008b" opacity=".9"/><path d="m61.351 53.156 6.657 11.529 5.64 9.77 18.104-31.357h-24.594z" fill="#fa7b68"/><path d="m73.49 74.729h-24.594l18.228 31.572 12.455-21.573-5.931-10.273z" fill="#7fe5b3"/><path d="m61.351 53.156-.034-.059h-36.523l-.158.274 12.332 21.358h11.928z" fill="#7a81da"/><path d="m48.896 74.729h24.594l.158-.274-5.64-9.77-6.657-11.529z" fill="#7c88a8"/></svg>